<svg width="256" height="256" viewBox="0 0 256 256" fill="none" xmlns="http://www.w3.org/2000/svg" role="img" aria-labelledby="title desc">
  <title id="title">Sealtun logo</title>
  <desc id="desc">A rounded green seal containing a protected tunnel route that forms an abstract S mark.</desc>
  <rect width="256" height="256" rx="58" fill="#007A62"/>
  <rect x="18" y="18" width="220" height="220" rx="44" fill="url(#paint0_linear)" stroke="rgba(255,255,255,0.22)" stroke-width="2"/>
  <path d="M79 82C79 70.9543 87.9543 62 99 62H181C187.627 62 193 67.3726 193 74V93C193 99.6274 187.627 105 181 105H108C102.477 105 98 109.477 98 115V118C98 123.523 102.477 128 108 128H156C178.091 128 196 145.909 196 168V172C196 194.091 178.091 212 156 212H78C71.3726 212 66 206.627 66 200V181C66 174.373 71.3726 169 78 169H151C156.523 169 161 164.523 161 159V156C161 150.477 156.523 146 151 146H103C80.9086 146 63 128.091 63 106V102C63 91.9054 66.7415 82.6848 72.9137 75.6489" stroke="white" stroke-width="22" stroke-linecap="round" stroke-linejoin="round"/>
  <path d="M83 64L63 84L83 104" stroke="#8FE7D2" stroke-width="12" stroke-linecap="round" stroke-linejoin="round"/>
  <path d="M173 152L193 172L173 192" stroke="#8FE7D2" stroke-width="12" stroke-linecap="round" stroke-linejoin="round"/>
  <circle cx="84" cy="84" r="7" fill="#E9FFFA"/>
  <circle cx="172" cy="172" r="7" fill="#E9FFFA"/>
  <defs>
    <linearGradient id="paint0_linear" x1="32" y1="26" x2="222" y2="232" gradientUnits="userSpaceOnUse">
      <stop stop-color="#009B7C"/>
      <stop offset="1" stop-color="#005C4C"/>
    </linearGradient>
  </defs>
</svg>
